<?xml version="1.0" encoding="UTF-8"?>
<svg version="1.1" xmlns="http://www.w3.org/2000/svg" width="215" height="185">
<path d="M0 0 C4.28234794 2.34605178 7.2468867 4.57352318 9.08203125 9.140625 C9.19921875 11.2890625 9.19921875 11.2890625 8.95703125 13.515625 C8.89257812 14.24523437 8.828125 14.97484375 8.76171875 15.7265625 C8.08203125 18.140625 8.08203125 18.140625 6.06871033 20.71359253 C3.49791394 25.14823062 3.53940284 28.36228802 3.61547852 33.38720703 C3.6131723 34.29849365 3.61086609 35.20978027 3.60848999 36.14868164 C3.60586724 38.11951575 3.6122713 40.09037831 3.62674141 42.06116104 C3.64865864 45.17990508 3.64490175 48.29768099 3.63426208 51.41647339 C3.61261253 59.15801968 3.63000332 66.89934894 3.65576172 74.64086914 C3.6771368 81.19066955 3.67915452 87.73984884 3.65284538 94.28963852 C3.64848726 97.36334115 3.67315093 100.43597092 3.69837952 103.509552 C3.69311008 105.39065026 3.68638852 107.2717452 3.67797852 109.15283203 C3.69288834 110.00799408 3.70779816 110.86315613 3.72315979 111.74423218 C3.67420502 115.80073648 3.61720339 117.52209905 0.89007568 120.67398071 C-2.19640519 122.28605262 -3.982762 122.62713748 -7.44262695 122.59472656 C-8.5233699 122.59442444 -9.60411285 122.59412231 -10.71760559 122.59381104 C-11.87298325 122.57316589 -13.0283609 122.55252075 -14.21875 122.53125 C-15.41026169 122.52559021 -16.60177338 122.51993042 -17.82939148 122.51409912 C-21.63016144 122.49173185 -25.42998432 122.44153185 -29.23046875 122.390625 C-31.80923117 122.37056059 -34.38800838 122.35230972 -36.96679688 122.3359375 C-43.2841766 122.29186571 -49.60100501 122.2249487 -55.91796875 122.140625 C-55.78093536 122.7369725 -55.64390198 123.33332001 -55.50271606 123.94773865 C-53.71573621 131.83230585 -53.71573621 131.83230585 -53.28515625 135.73828125 C-53.20136719 136.47626953 -53.11757812 137.21425781 -53.03125 137.97460938 C-52.95261719 138.71001953 -52.87398437 139.44542969 -52.79296875 140.203125 C-52.66341797 141.35844727 -52.66341797 141.35844727 -52.53125 142.53710938 C-52.32247708 144.40446717 -52.11958249 146.27248069 -51.91796875 148.140625 C-51.2425 148.10582031 -50.56703125 148.07101563 -49.87109375 148.03515625 C-48.9790625 148.00808594 -48.08703125 147.98101562 -47.16796875 147.953125 C-46.28625 147.91832031 -45.40453125 147.88351563 -44.49609375 147.84765625 C-41.91796875 148.140625 -41.91796875 148.140625 -40.16772461 149.59472656 C-37.21632272 151.62275443 -34.89445877 151.7842075 -31.34375 152.16796875 C-30.0436499 152.31814453 -28.7435498 152.46832031 -27.40405273 152.62304688 C-26.72156464 152.6970874 -26.03907654 152.77112793 -25.33590698 152.84741211 C-21.81487375 153.23324521 -18.29994414 153.66677605 -14.78515625 154.10546875 C-13.75390877 154.23409805 -13.75390877 154.23409805 -12.701828 154.36532593 C7.62906206 156.96493975 7.62906206 156.96493975 16.08203125 163.140625 C16.08203125 165.390625 16.08203125 165.390625 15.08203125 168.140625 C10.21688048 171.48127556 4.61295384 173.05931374 -1.10546875 174.203125 C-1.90082031 174.36594971 -2.69617188 174.52877441 -3.515625 174.6965332 C-31.33502906 180.03015206 -59.9472563 180.35057548 -88.16796875 180.328125 C-89.45144196 180.32785309 -90.73491516 180.32758118 -92.05728149 180.32730103 C-111.08340298 180.30876066 -129.97757665 180.08376017 -148.91796875 178.140625 C-150.50834961 177.97989502 -150.50834961 177.97989502 -152.13085938 177.81591797 C-182.74591458 174.58411973 -182.74591458 174.58411973 -193.91796875 168.140625 C-194.79296875 165.953125 -194.79296875 165.953125 -194.91796875 164.140625 C-183.46971686 154.17023835 -164.41828445 153.71667145 -149.875 152.359375 C-148.82436371 152.26101097 -148.82436371 152.26101097 -147.75250244 152.16065979 C-144.2205266 151.83341433 -140.68796173 151.52143897 -137.15283203 151.23022461 C-135.85716309 151.11686768 -134.56149414 151.00351074 -133.2265625 150.88671875 C-132.05923584 150.79060303 -130.89190918 150.6944873 -129.68920898 150.59545898 C-126.78375137 150.39523988 -126.78375137 150.39523988 -124.91796875 148.140625 C-122.31640625 147.9453125 -122.31640625 147.9453125 -119.29296875 148.015625 C-118.29007812 148.03367188 -117.2871875 148.05171875 -116.25390625 148.0703125 C-115.48304687 148.09351563 -114.7121875 148.11671875 -113.91796875 148.140625 C-113.73621094 146.45646484 -113.73621094 146.45646484 -113.55078125 144.73828125 C-113.38176602 143.2265339 -113.21248063 141.71481674 -113.04296875 140.203125 C-112.96433594 139.46771484 -112.88570313 138.73230469 -112.8046875 137.97460938 C-112.67900391 136.86762695 -112.67900391 136.86762695 -112.55078125 135.73828125 C-112.47746582 135.07320557 -112.40415039 134.40812988 -112.32861328 133.72290039 C-111.70836618 129.82257125 -110.80216361 125.9885004 -109.91796875 122.140625 C-110.58338181 122.14950745 -111.24879486 122.15838989 -111.93437195 122.1675415 C-118.86102711 122.2560469 -125.78752159 122.31637291 -132.71459961 122.36035156 C-135.29962692 122.38046472 -137.88460875 122.40775886 -140.46948242 122.44238281 C-144.1854983 122.49091154 -147.90091253 122.51359735 -151.6171875 122.53125 C-152.77256516 122.55189514 -153.92794281 122.57254028 -155.11833191 122.59381104 C-156.19907486 122.59411316 -157.27981781 122.59441528 -158.39331055 122.59472656 C-159.34151169 122.60360901 -160.28971283 122.61249146 -161.26664734 122.62164307 C-165.00204143 121.94394626 -166.45693452 121.06667959 -168.91796875 118.140625 C-169.66514895 114.74105092 -169.60077444 111.39685354 -169.56494141 107.92773438 C-169.5780838 106.3710479 -169.5780838 106.3710479 -169.5914917 104.78291321 C-169.61351315 101.34964287 -169.59892216 97.91765861 -169.58203125 94.484375 C-169.58539856 92.10070549 -169.59025047 89.71703765 -169.5965271 87.33337402 C-169.6039022 82.33650371 -169.59317172 77.34008013 -169.56982422 72.34326172 C-169.5413369 65.93351433 -169.55773735 59.52481365 -169.58768654 53.11510468 C-169.6057418 48.19260755 -169.60000944 43.27035917 -169.58704758 38.34785461 C-169.5837087 35.9843178 -169.58781745 33.6207585 -169.59944534 31.25724792 C-169.61212412 27.95539405 -169.59281638 24.65524247 -169.56494141 21.35351562 C-169.57506256 20.37365189 -169.58518372 19.39378815 -169.59561157 18.38423157 C-169.58151245 17.48419907 -169.56741333 16.58416656 -169.55288696 15.65686035 C-169.55100183 14.876688 -169.54911671 14.09651566 -169.54717445 13.29270172 C-168.57960667 9.98332278 -166.79923076 8.92003225 -163.91796875 7.140625 C-161.11629772 6.64843369 -161.11629772 6.64843369 -158.00175476 6.65960693 C-156.81689987 6.65410828 -155.63204498 6.64860962 -154.4112854 6.64294434 C-153.12015839 6.65732544 -151.82903137 6.67170654 -150.4987793 6.68652344 C-149.11874932 6.68765232 -147.73871694 6.68701725 -146.35868835 6.68475342 C-142.61922299 6.68360692 -138.88027205 6.70710525 -135.14092612 6.73504925 C-131.23051809 6.76007389 -127.32009794 6.76240573 -123.40962219 6.76715088 C-116.00773794 6.77957757 -108.60609034 6.8123949 -101.20431024 6.85254884 C-92.77633489 6.89727619 -84.34834818 6.91925599 -75.92028368 6.93933058 C-58.58604188 6.9811279 -41.25203034 7.05147385 -23.91796875 7.140625 C-23.49837891 5.97273437 -23.49837891 5.97273437 -23.0703125 4.78125 C-21.62646988 1.47264793 -19.87169735 0.15780551 -16.91796875 -1.859375 C-10.58234409 -3.97124989 -5.8184793 -2.81507346 0 0 Z M-10.91796875 6.140625 C-10.91796875 6.470625 -10.91796875 6.800625 -10.91796875 7.140625 C-9.26796875 7.140625 -7.61796875 7.140625 -5.91796875 7.140625 C-5.91796875 6.810625 -5.91796875 6.480625 -5.91796875 6.140625 C-7.56796875 6.140625 -9.21796875 6.140625 -10.91796875 6.140625 Z " fill="#E4E9F4" transform="translate(197.91796875,4.859375)"/>
<path d="M0 0 C4.28234794 2.34605178 7.2468867 4.57352318 9.08203125 9.140625 C9.19921875 11.2890625 9.19921875 11.2890625 8.95703125 13.515625 C8.89257812 14.24523437 8.828125 14.97484375 8.76171875 15.7265625 C8.08203125 18.140625 8.08203125 18.140625 6.06871033 20.71359253 C3.49791394 25.14823062 3.53940284 28.36228802 3.61547852 33.38720703 C3.6131723 34.29849365 3.61086609 35.20978027 3.60848999 36.14868164 C3.60586724 38.11951575 3.6122713 40.09037831 3.62674141 42.06116104 C3.64865864 45.17990508 3.64490175 48.29768099 3.63426208 51.41647339 C3.61261253 59.15801968 3.63000332 66.89934894 3.65576172 74.64086914 C3.6771368 81.19066955 3.67915452 87.73984884 3.65284538 94.28963852 C3.64848726 97.36334115 3.67315093 100.43597092 3.69837952 103.509552 C3.69311008 105.39065026 3.68638852 107.2717452 3.67797852 109.15283203 C3.69288834 110.00799408 3.70779816 110.86315613 3.72315979 111.74423218 C3.67420502 115.80073648 3.61720339 117.52209905 0.89007568 120.67398071 C-2.19640519 122.28605262 -3.982762 122.62713748 -7.44262695 122.59472656 C-8.5233699 122.59442444 -9.60411285 122.59412231 -10.71760559 122.59381104 C-11.87298325 122.57316589 -13.0283609 122.55252075 -14.21875 122.53125 C-15.41026169 122.52559021 -16.60177338 122.51993042 -17.82939148 122.51409912 C-21.63016144 122.49173185 -25.42998432 122.44153185 -29.23046875 122.390625 C-31.80923117 122.37056059 -34.38800838 122.35230972 -36.96679688 122.3359375 C-43.2841766 122.29186571 -49.60100501 122.2249487 -55.91796875 122.140625 C-55.78093536 122.7369725 -55.64390198 123.33332001 -55.50271606 123.94773865 C-53.71573621 131.83230585 -53.71573621 131.83230585 -53.28515625 135.73828125 C-53.20136719 136.47626953 -53.11757812 137.21425781 -53.03125 137.97460938 C-52.95261719 138.71001953 -52.87398437 139.44542969 -52.79296875 140.203125 C-52.66341797 141.35844727 -52.66341797 141.35844727 -52.53125 142.53710938 C-52.32247708 144.40446717 -52.11958249 146.27248069 -51.91796875 148.140625 C-51.2425 148.10582031 -50.56703125 148.07101563 -49.87109375 148.03515625 C-48.9790625 148.00808594 -48.08703125 147.98101562 -47.16796875 147.953125 C-46.28625 147.91832031 -45.40453125 147.88351563 -44.49609375 147.84765625 C-41.91796875 148.140625 -41.91796875 148.140625 -40.16772461 149.59472656 C-37.21632272 151.62275443 -34.89445877 151.7842075 -31.34375 152.16796875 C-30.0436499 152.31814453 -28.7435498 152.46832031 -27.40405273 152.62304688 C-26.72156464 152.6970874 -26.03907654 152.77112793 -25.33590698 152.84741211 C-21.81487375 153.23324521 -18.29994414 153.66677605 -14.78515625 154.10546875 C-13.75390877 154.23409805 -13.75390877 154.23409805 -12.701828 154.36532593 C7.62906206 156.96493975 7.62906206 156.96493975 16.08203125 163.140625 C16.08203125 165.390625 16.08203125 165.390625 15.08203125 168.140625 C10.21688048 171.48127556 4.61295384 173.05931374 -1.10546875 174.203125 C-1.90082031 174.36594971 -2.69617188 174.52877441 -3.515625 174.6965332 C-31.33502906 180.03015206 -59.9472563 180.35057548 -88.16796875 180.328125 C-89.45144196 180.32785309 -90.73491516 180.32758118 -92.05728149 180.32730103 C-111.08340298 180.30876066 -129.97757665 180.08376017 -148.91796875 178.140625 C-150.50834961 177.97989502 -150.50834961 177.97989502 -152.13085938 177.81591797 C-182.74591458 174.58411973 -182.74591458 174.58411973 -193.91796875 168.140625 C-194.79296875 165.953125 -194.79296875 165.953125 -194.91796875 164.140625 C-183.46971686 154.17023835 -164.41828445 153.71667145 -149.875 152.359375 C-148.82436371 152.26101097 -148.82436371 152.26101097 -147.75250244 152.16065979 C-144.2205266 151.83341433 -140.68796173 151.52143897 -137.15283203 151.23022461 C-135.85716309 151.11686768 -134.56149414 151.00351074 -133.2265625 150.88671875 C-132.05923584 150.79060303 -130.89190918 150.6944873 -129.68920898 150.59545898 C-126.78375137 150.39523988 -126.78375137 150.39523988 -124.91796875 148.140625 C-122.31640625 147.9453125 -122.31640625 147.9453125 -119.29296875 148.015625 C-118.29007812 148.03367188 -117.2871875 148.05171875 -116.25390625 148.0703125 C-115.48304687 148.09351563 -114.7121875 148.11671875 -113.91796875 148.140625 C-113.73621094 146.45646484 -113.73621094 146.45646484 -113.55078125 144.73828125 C-113.38176602 143.2265339 -113.21248063 141.71481674 -113.04296875 140.203125 C-112.96433594 139.46771484 -112.88570313 138.73230469 -112.8046875 137.97460938 C-112.67900391 136.86762695 -112.67900391 136.86762695 -112.55078125 135.73828125 C-112.47746582 135.07320557 -112.40415039 134.40812988 -112.32861328 133.72290039 C-111.70836618 129.82257125 -110.80216361 125.9885004 -109.91796875 122.140625 C-110.58338181 122.14950745 -111.24879486 122.15838989 -111.93437195 122.1675415 C-118.86102711 122.2560469 -125.78752159 122.31637291 -132.71459961 122.36035156 C-135.29962692 122.38046472 -137.88460875 122.40775886 -140.46948242 122.44238281 C-144.1854983 122.49091154 -147.90091253 122.51359735 -151.6171875 122.53125 C-152.77256516 122.55189514 -153.92794281 122.57254028 -155.11833191 122.59381104 C-156.19907486 122.59411316 -157.27981781 122.59441528 -158.39331055 122.59472656 C-159.34151169 122.60360901 -160.28971283 122.61249146 -161.26664734 122.62164307 C-165.00204143 121.94394626 -166.45693452 121.06667959 -168.91796875 118.140625 C-169.66514895 114.74105092 -169.60077444 111.39685354 -169.56494141 107.92773438 C-169.5780838 106.3710479 -169.5780838 106.3710479 -169.5914917 104.78291321 C-169.61351315 101.34964287 -169.59892216 97.91765861 -169.58203125 94.484375 C-169.58539856 92.10070549 -169.59025047 89.71703765 -169.5965271 87.33337402 C-169.6039022 82.33650371 -169.59317172 77.34008013 -169.56982422 72.34326172 C-169.5413369 65.93351433 -169.55773735 59.52481365 -169.58768654 53.11510468 C-169.6057418 48.19260755 -169.60000944 43.27035917 -169.58704758 38.34785461 C-169.5837087 35.9843178 -169.58781745 33.6207585 -169.59944534 31.25724792 C-169.61212412 27.95539405 -169.59281638 24.65524247 -169.56494141 21.35351562 C-169.57506256 20.37365189 -169.58518372 19.39378815 -169.59561157 18.38423157 C-169.58151245 17.48419907 -169.56741333 16.58416656 -169.55288696 15.65686035 C-169.55100183 14.876688 -169.54911671 14.09651566 -169.54717445 13.29270172 C-168.57960667 9.98332278 -166.79923076 8.92003225 -163.91796875 7.140625 C-161.11629772 6.64843369 -161.11629772 6.64843369 -158.00175476 6.65960693 C-156.81689987 6.65410828 -155.63204498 6.64860962 -154.4112854 6.64294434 C-153.12015839 6.65732544 -151.82903137 6.67170654 -150.4987793 6.68652344 C-149.11874932 6.68765232 -147.73871694 6.68701725 -146.35868835 6.68475342 C-142.61922299 6.68360692 -138.88027205 6.70710525 -135.14092612 6.73504925 C-131.23051809 6.76007389 -127.32009794 6.76240573 -123.40962219 6.76715088 C-116.00773794 6.77957757 -108.60609034 6.8123949 -101.20431024 6.85254884 C-92.77633489 6.89727619 -84.34834818 6.91925599 -75.92028368 6.93933058 C-58.58604188 6.9811279 -41.25203034 7.05147385 -23.91796875 7.140625 C-23.49837891 5.97273437 -23.49837891 5.97273437 -23.0703125 4.78125 C-21.62646988 1.47264793 -19.87169735 0.15780551 -16.91796875 -1.859375 C-10.58234409 -3.97124989 -5.8184793 -2.81507346 0 0 Z M-10.91796875 6.140625 C-10.91796875 6.470625 -10.91796875 6.800625 -10.91796875 7.140625 C-9.26796875 7.140625 -7.61796875 7.140625 -5.91796875 7.140625 C-5.91796875 6.810625 -5.91796875 6.480625 -5.91796875 6.140625 C-7.56796875 6.140625 -9.21796875 6.140625 -10.91796875 6.140625 Z M-164.91796875 16.140625 C-165.41236933 19.21363175 -165.60345612 21.73023983 -165.56494141 24.79882812 C-165.573703 25.65959457 -165.5824646 26.52036102 -165.5914917 27.4072113 C-165.61345687 30.24594882 -165.59894349 33.08312229 -165.58203125 35.921875 C-165.58540022 37.8981557 -165.59025351 39.87443439 -165.5965271 41.85070801 C-165.60389452 45.9900284 -165.59319701 50.12880884 -165.56982422 54.26806641 C-165.54133665 59.57133207 -165.55774131 64.87333257 -165.58768654 70.17655182 C-165.60576296 74.25670894 -165.59999987 78.3365666 -165.58704758 82.41673279 C-165.58371452 84.37194468 -165.5877971 86.32718385 -165.59944534 88.28236389 C-165.61215972 91.01644801 -165.59276964 93.74848973 -165.56494141 96.48242188 C-165.57506256 97.288806 -165.58518372 98.09519012 -165.59561157 98.92601013 C-165.52328672 102.76565891 -165.18528393 104.80217947 -162.77958584 107.84801388 C-159.36012837 110.58754401 -157.82609452 110.7665597 -153.49717712 110.76881409 C-151.55186852 110.78779503 -151.55186852 110.78779503 -149.56726074 110.80715942 C-148.13720303 110.79584407 -146.70714929 110.78401663 -145.27709961 110.77172852 C-143.76562155 110.77686858 -142.25414947 110.78415051 -140.74269104 110.79341125 C-136.64344981 110.81192126 -132.54485922 110.79899029 -128.44564509 110.77932096 C-124.15537051 110.76293263 -119.86513707 110.77174746 -115.57484436 110.77684021 C-108.37132372 110.78136049 -101.16806282 110.76549432 -93.96459961 110.73754883 C-85.6353 110.70548495 -77.3064685 110.7055175 -68.9771356 110.7227636 C-60.96430205 110.73862344 -52.95164019 110.73189945 -44.93881416 110.71482658 C-41.52857457 110.70795239 -38.11847246 110.70899224 -34.70823479 110.71637154 C-30.6935334 110.72402902 -26.67936529 110.71192642 -22.66475487 110.68452263 C-21.19095696 110.67763244 -19.71710931 110.67754767 -18.24331284 110.68473816 C-16.23279557 110.69341748 -14.22221554 110.6750574 -12.21177673 110.6552887 C-11.08630904 110.65248178 -9.96084135 110.64967485 -8.80126858 110.64678288 C-5.27103731 110.0270574 -4.1223765 108.90460329 -1.91796875 106.140625 C-0.4154396 103.1355667 -0.78804116 100.04805567 -0.80444336 96.75341797 C-0.80422432 95.61181213 -0.80422432 95.61181213 -0.80400085 94.44714355 C-0.80469882 91.92567111 -0.81248581 89.40427208 -0.8203125 86.8828125 C-0.82217709 85.13689209 -0.8236008 83.39097116 -0.82460022 81.64505005 C-0.82842216 77.04517172 -0.8382497 72.44532486 -0.8493042 67.84545898 C-0.85952526 63.1534874 -0.86409933 58.46151075 -0.86914062 53.76953125 C-0.87987224 44.55988199 -0.89694481 35.35025611 -0.91796875 26.140625 C-6.0246461 26.59646017 -6.0246461 26.59646017 -10.35546875 29.078125 C-12.11925465 30.97506735 -12.11925465 30.97506735 -11.91796875 33.140625 C-14.22796875 32.150625 -16.53796875 31.160625 -18.91796875 30.140625 C-17.72405682 25.66345526 -16.81390546 23.62969568 -12.91796875 21.140625 C-11.19108133 20.35829267 -9.43923228 19.62900187 -7.66796875 18.953125 C-6.32992187 18.43685547 -6.32992187 18.43685547 -4.96484375 17.91015625 C-4.289375 17.65621094 -3.61390625 17.40226562 -2.91796875 17.140625 C-3.26241756 14.66795735 -3.26241756 14.66795735 -3.91796875 12.140625 C-6.67091464 10.76415205 -8.88882544 11.00196137 -11.9712677 10.98672485 C-13.26257095 10.97812439 -14.55387421 10.96952393 -15.88430786 10.96066284 C-17.32366903 10.95622747 -18.76303063 10.95192913 -20.20239258 10.94775391 C-21.71179901 10.93985401 -23.22120354 10.93158513 -24.73060608 10.92297363 C-29.69538567 10.89674176 -34.66017375 10.88144544 -39.625 10.8671875 C-41.33301995 10.86182841 -43.04103984 10.85645091 -44.74905968 10.85105515 C-51.85286255 10.82942524 -58.95666313 10.81068773 -66.06049061 10.79943275 C-76.24713775 10.78318824 -86.43340376 10.74999981 -96.6199072 10.69303191 C-103.77920218 10.65435617 -110.93839512 10.63480292 -118.09779185 10.62951219 C-122.37545996 10.62585562 -126.65272169 10.61380236 -130.93027687 10.58140945 C-134.95477118 10.5513699 -138.97861236 10.5450019 -143.00319481 10.55679321 C-144.47983609 10.55701429 -145.95650732 10.54868054 -147.43304443 10.53113937 C-149.44980875 10.50848553 -151.46686864 10.51971545 -153.48371887 10.53262329 C-154.61216123 10.52931314 -155.74060358 10.526003 -156.90324116 10.52259254 C-160.9150186 11.34502462 -162.41148857 12.96446297 -164.91796875 16.140625 Z " fill="#556FAC" transform="translate(197.91796875,4.859375)"/>
<path d="M0 0 C0.91442368 -0.00637985 1.82884735 -0.0127597 2.77098083 -0.01933289 C3.76573929 -0.02044571 4.76049774 -0.02155853 5.78540039 -0.02270508 C6.80026016 -0.02603348 7.81511993 -0.02936188 8.86073303 -0.03279114 C11.01196844 -0.03786483 13.16321174 -0.04019933 15.31445312 -0.04003906 C18.615447 -0.04222467 21.91610639 -0.0603734 25.21704102 -0.0793457 C27.30232632 -0.08227964 29.38761323 -0.08426443 31.47290039 -0.08520508 C32.46563461 -0.09239059 33.45836884 -0.09957611 34.48118591 -0.10697937 C35.39876175 -0.10390274 36.31633759 -0.10082611 37.26171875 -0.09765625 C38.07144638 -0.09908127 38.88117401 -0.10050629 39.71543884 -0.10197449 C41.69555664 0.14526367 41.69555664 0.14526367 43.69555664 2.14526367 C43.89086914 4.30932617 43.89086914 4.30932617 43.82055664 6.77026367 C43.80250977 7.5875293 43.78446289 8.40479492 43.76586914 9.24682617 C43.74266602 9.87331055 43.71946289 10.49979492 43.69555664 11.14526367 C44.35152832 11.13479004 45.0075 11.12431641 45.68334961 11.11352539 C48.64571322 11.07203865 51.6080158 11.04596105 54.57055664 11.02026367 C55.6030957 11.00350586 56.63563477 10.98674805 57.69946289 10.96948242 C58.6855957 10.96303711 59.67172852 10.9565918 60.68774414 10.94995117 C62.05455322 10.93424072 62.05455322 10.93424072 63.44897461 10.91821289 C65.69555664 11.14526367 65.69555664 11.14526367 67.69555664 13.14526367 C67.9700621 16.49423022 67.78184468 19.78003031 67.69555664 23.14526367 C74.62555664 22.15526367 74.62555664 22.15526367 81.69555664 21.14526367 C82.19055664 25.10526367 82.19055664 25.10526367 82.69555664 29.14526367 C85.66555664 29.14526367 88.63555664 29.14526367 91.69555664 29.14526367 C93.26633571 34.1717567 94.14410393 38.90646289 94.69555664 44.14526367 C91.23055664 42.66026367 91.23055664 42.66026367 87.69555664 41.14526367 C87.03555664 41.82588867 86.37555664 42.50651367 85.69555664 43.20776367 C81.51773646 45.9059392 79.50779454 44.93415513 74.69555664 44.14526367 C73.70555664 45.13526367 73.70555664 45.13526367 72.69555664 46.14526367 C70.04018292 46.7104637 67.40410951 46.88314565 64.69555664 47.14526367 C67.458057 48.52651385 69.64286764 48.33605673 72.69555664 48.14526367 C73.68555664 47.15526367 73.68555664 47.15526367 74.69555664 46.14526367 C76.85961914 46.38745117 76.85961914 46.38745117 79.32055664 47.02026367 C80.13782227 47.22393555 80.95508789 47.42760742 81.79711914 47.63745117 C82.42360352 47.8050293 83.05008789 47.97260742 83.69555664 48.14526367 C83.96368164 47.52651367 84.23180664 46.90776367 84.50805664 46.27026367 C85.69555664 44.14526367 85.69555664 44.14526367 88.69555664 42.14526367 C91.24818603 43.34894257 92.78617371 44.1347129 94.69555664 46.14526367 C95.87603557 49.4981208 96.21512383 52.870555 96.57055664 56.39526367 C96.68657227 57.33112305 96.80258789 58.26698242 96.92211914 59.23120117 C97.20411289 61.5341501 97.46092407 63.83708962 97.69555664 66.14526367 C93.47854862 66.86046215 89.26101602 67.57245703 85.04296875 68.28149414 C83.60825002 68.52312757 82.17367808 68.76563425 80.73925781 69.0090332 C78.67689416 69.35882835 76.61402222 69.70547495 74.55102539 70.05151367 C72.68933716 70.36572266 72.68933716 70.36572266 70.79003906 70.6862793 C67.69555664 71.14526367 67.69555664 71.14526367 64.69555664 71.14526367 C63.70555664 66.69026367 63.70555664 66.69026367 62.69555664 62.14526367 C61.87314484 62.14748428 61.05073303 62.1497049 60.20339966 62.1519928 C52.46333088 62.17200705 44.7232746 62.18724361 36.98318672 62.19707584 C33.00367252 62.20230056 29.02417966 62.20939077 25.04467773 62.22070312 C21.20622421 62.23154658 17.36779124 62.23754362 13.52932358 62.24014091 C12.06286165 62.24199252 10.59640087 62.24560811 9.12994766 62.25099373 C7.08034052 62.2582235 5.03081896 62.25925379 2.98120117 62.25878906 C1.22913864 62.26211998 1.22913864 62.26211998 -0.55831909 62.26551819 C-3.30444336 62.14526367 -3.30444336 62.14526367 -5.30444336 61.14526367 C-5.32757128 53.33951172 -5.34536074 45.53376773 -5.35625553 37.72799015 C-5.36148338 34.10380408 -5.36857923 30.47964137 -5.37988281 26.85546875 C-5.3907152 23.36066393 -5.39672094 19.86588164 -5.3993206 16.37106133 C-5.40207887 14.38286978 -5.40989024 12.39468736 -5.41773987 10.4065094 C-5.4178154 9.20533981 -5.41789093 8.00417023 -5.41796875 6.76660156 C-5.42018936 5.70292862 -5.42240997 4.63925568 -5.42469788 3.54335022 C-5.22045789 -0.52955432 -3.64218022 0.01716245 0 0 Z " fill="#FDFEFE" transform="translate(82.304443359375,36.854736328125)"/>
<path d="M0 0 C0 2.64 0 5.28 0 8 C29.7 8 59.4 8 90 8 C90 5.69 90 3.38 90 1 C99.90505281 1.26915904 109.59032055 2.22950479 119.375 3.8125 C120.35984375 3.96557617 121.3446875 4.11865234 122.359375 4.27636719 C139.111414 7.111414 139.111414 7.111414 144 12 C144.125 14.375 144.125 14.375 143 17 C138.0915496 20.30609557 132.55218274 21.91443624 126.8125 23.0625 C126.01714844 23.22532471 125.22179687 23.38814941 124.40234375 23.5559082 C96.58293969 28.88952706 67.97071245 29.20995048 39.75 29.1875 C38.46652679 29.18722809 37.18305359 29.18695618 35.86068726 29.18667603 C16.83456577 29.16813566 -2.0596079 28.94313517 -21 27 C-22.06025391 26.89284668 -23.12050781 26.78569336 -24.21289062 26.67529297 C-54.82794583 23.44349473 -54.82794583 23.44349473 -66 17 C-66.875 14.8125 -66.875 14.8125 -67 13 C-51.65256166 -0.36622357 -19.36284311 -0.29303488 0 0 Z " fill="#E4E8F4" transform="translate(70,156)"/>
<path d="M0 0 C2.89158104 1.16331815 4.7380034 1.9394635 7 4 C8.30294051 7.34512755 8.6110612 10.69156791 8.9375 14.25 C9.04900391 15.18585938 9.16050781 16.12171875 9.27539062 17.0859375 C9.545645 19.38897477 9.78597235 21.69117275 10 24 C5.78299198 24.71519847 1.56545938 25.42719336 -2.65258789 26.13623047 C-4.08730662 26.37786389 -5.52187856 26.62037058 -6.95629883 26.86376953 C-9.01866249 27.21356468 -11.08153442 27.56021128 -13.14453125 27.90625 C-14.38565674 28.11572266 -15.62678223 28.32519531 -16.90551758 28.54101562 C-20 29 -20 29 -23 29 C-23.50423557 26.25071558 -24.00353426 23.50068857 -24.5 20.75 C-24.64308594 19.97269531 -24.78617188 19.19539063 -24.93359375 18.39453125 C-25.06894531 17.64042969 -25.20429688 16.88632813 -25.34375 16.109375 C-25.46943359 15.41811523 -25.59511719 14.72685547 -25.72460938 14.01464844 C-26 12 -26 12 -26 8 C-22.12601577 6.1769486 -19.23517809 6 -15 6 C-14.34 5.34 -13.68 4.68 -13 4 C-10.8359375 4.2421875 -10.8359375 4.2421875 -8.375 4.875 C-7.55773437 5.07867187 -6.74046875 5.28234375 -5.8984375 5.4921875 C-5.27195313 5.65976563 -4.64546875 5.82734375 -4 6 C-3.566875 5.071875 -3.566875 5.071875 -3.125 4.125 C-2 2 -2 2 0 0 Z " fill="#FEFEFE" transform="translate(170,79)"/>
<path d="M0 0 C2.1519437 3.22791555 2.20086443 4.28400809 2 8 C4.97 8 7.94 8 11 8 C12.57077907 13.02649303 13.44854729 17.76119922 14 23 C11.69 22.01 9.38 21.02 7 20 C6.01 21.0209375 6.01 21.0209375 5 22.0625 C0.82217982 24.76067553 -1.1877621 23.78889146 -6 23 C-6.66 23.66 -7.32 24.32 -8 25 C-11.74323522 25.59416432 -15.21694904 26 -19 26 C-22.41484259 22.58515741 -22.10941124 12.5952403 -22.3125 7.8125 C-22.1578125 6.4203125 -22.1578125 6.4203125 -22 5 C-19.08876338 3.05917559 -17.87506021 2.63927064 -14.55078125 2.1484375 C-13.27944336 1.95507812 -13.27944336 1.95507812 -11.98242188 1.7578125 C-11.10134766 1.63148437 -10.22027344 1.50515625 -9.3125 1.375 C-7.97348633 1.17390625 -7.97348633 1.17390625 -6.60742188 0.96875 C-4.40585573 0.63910373 -2.20349353 0.31646086 0 0 Z " fill="#FEFEFE" transform="translate(163,58)"/>
<path d="M0 0 C4.28234794 2.34605178 7.2468867 4.57352318 9.08203125 9.140625 C9.32131399 13.52747517 8.37806845 17.39348349 6.76953125 21.453125 C3.20915326 25.01350299 -0.35445671 25.75123189 -5.12109375 27.12890625 C-8.55785579 28.37209252 -10.14860986 29.955779 -11.91796875 33.140625 C-15.2925959 32.59338817 -17.00031875 32.085725 -19.91796875 30.140625 C-18.66939743 25.1463397 -17.35069435 22.81873005 -12.91796875 20.140625 C-9.62594871 18.96598385 -6.30285667 18.00820792 -2.91796875 17.140625 C-3.26583583 15.16525755 -3.26583583 15.16525755 -3.91796875 13.140625 C-6.25937276 11.969923 -7.93566997 11.93513978 -10.54296875 11.765625 C-15.47280169 11.32853225 -19.37730559 10.07461116 -23.91796875 8.140625 C-22.96611463 3.22445534 -20.09147521 0.66207952 -16.04296875 -2.171875 C-10.08941404 -4.09802505 -5.39580843 -2.61057852 0 0 Z M-10.91796875 6.140625 C-10.91796875 6.470625 -10.91796875 6.800625 -10.91796875 7.140625 C-9.26796875 7.140625 -7.61796875 7.140625 -5.91796875 7.140625 C-5.91796875 6.810625 -5.91796875 6.480625 -5.91796875 6.140625 C-7.56796875 6.140625 -9.21796875 6.140625 -10.91796875 6.140625 Z " fill="#2E57B3" transform="translate(197.91796875,4.859375)"/>
<path d="M0 0 C3.94139078 1.66751148 6.7892812 4.22710649 10 7 C12.31 4.69 14.62 2.38 17 0 C18.65 1.32 20.3 2.64 22 4 C20.55746343 7.36591866 18.66735273 9.51047079 16 12 C17.11591737 14.60380719 18.06671367 16.06099536 20.1875 18 C22 20 22 20 22 22.125 C21 24 21 24 17 26 C14.69 23.69 12.38 21.38 10 19 C8.9275 19.99 7.855 20.98 6.75 22 C3.74658993 24.77237852 3.36795404 25 -1 25 C-1.66 24.34 -2.32 23.68 -3 23 C-2.88679697 19.71711224 -1.71715137 18.69645513 0.5625 16.25 C1.366875 15.5075 2.17125 14.765 3 14 C1.55746343 10.63408134 -0.33264727 8.48952921 -3 6 C-2 4 -1 2 0 0 Z " fill="#335BB5" transform="translate(104,58)"/>
<path d="M0 0 C2.97 0.99 5.94 1.98 9 3 C8.5020163 6.73487777 8.12508244 8.81237635 6 12 C3.03 11.01 0.06 10.02 -3 9 C-2.01 6.03 -1.02 3.06 0 0 Z " fill="#375EB6" transform="translate(175,39)"/>
<path d="M0 0 C3.37503669 1.1858237 5.64722731 2.27573689 8 5 C7.01 5.33 6.02 5.66 5 6 C2.3125 4.5625 2.3125 4.5625 0 3 C-0.474375 3.845625 -0.94875 4.69125 -1.4375 5.5625 C-4 8 -4 8 -6.19921875 8.0390625 C-7.79936902 7.80715666 -9.39346224 7.52793558 -10.9765625 7.19921875 C-11.64429688 7.13347656 -12.31203125 7.06773438 -13 7 C-13.66 7.66 -14.32 8.32 -15 9 C-17.9375 9.3125 -17.9375 9.3125 -21 9 C-22.69140625 7.48046875 -22.69140625 7.48046875 -24 6 C-23.09507812 5.92652344 -23.09507812 5.92652344 -22.171875 5.8515625 C-21.37265625 5.77679688 -20.5734375 5.70203125 -19.75 5.625 C-18.96109375 5.55539063 -18.1721875 5.48578125 -17.359375 5.4140625 C-14.96618295 5.11308451 -14.96618295 5.11308451 -12.88671875 3.921875 C-11 3 -11 3 -8.0625 3.625 C-4.85289662 4.35760756 -4.85289662 4.35760756 -2.125 2.0625 C-1.42375 1.381875 -0.7225 0.70125 0 0 Z " fill="#DCDEE3" transform="translate(170,77)"/>
<path d="M0 0 C0.99 0 1.98 0 3 0 C3 3.3 3 6.6 3 10 C2.34 10 1.68 10 1 10 C0.67 11.32 0.34 12.64 0 14 C-3.63 14 -7.26 14 -11 14 C-10.67 13.01 -10.34 12.02 -10 11 C-7.36 11 -4.72 11 -2 11 C-3.65 9.02 -5.3 7.04 -7 5 C-5.1875 4.3125 -5.1875 4.3125 -3 4 C-1.25 5.4375 -1.25 5.4375 0 7 C-0.185625 6.030625 -0.37125 5.06125 -0.5625 4.0625 C-0.706875 3.051875 -0.85125 2.04125 -1 1 C-0.67 0.67 -0.34 0.34 0 0 Z " fill="#F8BC50" transform="translate(29,0)"/>
<path d="M0 0 C1.45792884 -0.05399736 2.91642712 -0.09279177 4.375 -0.125 C5.18710938 -0.14820313 5.99921875 -0.17140625 6.8359375 -0.1953125 C9 0 9 0 11 2 C11.125 5.625 11.125 5.625 11 9 C10.525625 8.360625 10.05125 7.72125 9.5625 7.0625 C5.94579965 4.15149728 2.52795106 4.19350218 -2 4 C-1.34 2.68 -0.68 1.36 0 0 Z " fill="#5872AE" transform="translate(185,12)"/>
<path d="M0 0 C2.125 0.375 2.125 0.375 4 1 C4.38218767 2.65614657 4.71395102 4.32457024 5 6 C4 7 4 7 1.4375 7.0625 C0.2309375 7.0315625 0.2309375 7.0315625 -1 7 C-1.625 4.625 -1.625 4.625 -2 2 C-1.34 1.34 -0.68 0.68 0 0 Z " fill="#EFF1F7" transform="translate(112,117)"/>
<path d="M0 0 C3.98381075 2.16264012 6.88983545 4.71211176 10 8 C7.03 8 4.06 8 1 8 C0.67 5.36 0.34 2.72 0 0 Z " fill="#E0E4EC" transform="translate(164,58)"/>
<path d="M0 0 C0.66 0 1.32 0 2 0 C2 0.99 2 1.98 2 3 C2.99 3 3.98 3 5 3 C5 3.66 5 4.32 5 5 C4.01 5 3.02 5 2 5 C2 6.32 2 7.64 2 9 C1.34 9 0.68 9 0 9 C0 7.68 0 6.36 0 5 C-1.32 4.67 -2.64 4.34 -4 4 C-2.68 3.67 -1.36 3.34 0 3 C0 2.01 0 1.02 0 0 Z " fill="#2B55B1" transform="translate(4,102)"/>
<path d="M0 0 C0.33 1.32 0.66 2.64 1 4 C2.32 4 3.64 4 5 4 C5 4.66 5 5.32 5 6 C3.68 6 2.36 6 1 6 C0.67 6.99 0.34 7.98 0 9 C0 8.01 0 7.02 0 6 C-1.32 6 -2.64 6 -4 6 C-4 5.34 -4 4.68 -4 4 C-2.68 4 -1.36 4 0 4 C0 2.68 0 1.36 0 0 Z " fill="#F7BB50" transform="translate(55,136)"/>
<path d="M0 0 C3.37503669 1.1858237 5.64722731 2.27573689 8 5 C5 6 5 6 3.17578125 5.22265625 C1.45052083 4.1484375 -0.27473958 3.07421875 -2 2 C-1.34 1.34 -0.68 0.68 0 0 Z " fill="#D4D7DE" transform="translate(170,77)"/>
<path d="M0 0 C0.99 0.33 1.98 0.66 3 1 C2.67 2.32 2.34 3.64 2 5 C1.01 5 0.02 5 -1 5 C-0.67 3.35 -0.34 1.7 0 0 Z " fill="#2C54B1" transform="translate(22,129)"/>
</svg>
